; NON-PLATED HOLES START AT T1
; THROUGH (PLATED) HOLES START AT T100
M48
INCH
T100C0.015748
T101C0.038779
T102C0.040000
%
T100
X019240Y019375
X003240Y007375
X026240Y028375
X020240Y023375
X019240Y028375
X005240Y017375
X019240Y016375
X019240Y015375
X021240Y016375
X019240Y018375
X004240Y007375
X005240Y016375
X023240Y028375
X019240Y023375
X004240Y027375
X020240Y024375
X019240Y021375
X002240Y027375
X003240Y027375
X020240Y016375
X020240Y028375
X028240Y028375
X025240Y028375
X022240Y028375
X021240Y015375
X019240Y005375
X002240Y007375
X020240Y015375
X024240Y028375
X020240Y021375
X027240Y028375
X019240Y024375
X005240Y027375
X005240Y007375
T101
X007240Y016370
X007240Y019370
X017097Y015366
X007240Y017373
X007240Y014372
X007240Y015366
X007240Y021367
X017097Y026365
X017097Y022371
X017097Y024368
X017097Y017373
X017097Y014372
X007240Y023364
X007240Y012375
X017097Y013369
X017097Y011372
X007240Y009375
X007240Y024368
X017097Y025361
X017097Y016370
X017097Y020364
X017097Y023364
X007240Y018367
X007240Y026365
X017097Y010378
X007240Y022371
X017097Y012375
X007240Y025361
X017097Y018367
X017097Y009375
X017097Y019370
X017097Y021367
X017097Y008371
X007240Y008371
X007240Y013369
X007240Y011372
X007240Y020364
X007240Y010378
T102
X019240Y002375
X020240Y002375
T00
M30
