G04 MADE WITH FRITZING*
G04 WWW.FRITZING.ORG*
G04 DOUBLE SIDED*
G04 HOLES PLATED*
G04 CONTOUR ON CENTER OF CONTOUR VECTOR*
%ASAXBY*%
%FSLAX23Y23*%
%MOIN*%
%OFA0B0*%
%SFA1.0B1.0*%
%ADD10C,0.071828*%
%ADD11C,0.080000*%
%ADD12C,0.039370*%
%ADD13R,0.080000X0.080000*%
%LNCOPPER1*%
G90*
G70*
G54D10*
X724Y2637D03*
X724Y2536D03*
X724Y2437D03*
X724Y2336D03*
X724Y2237D03*
X724Y2137D03*
X724Y2036D03*
X724Y1937D03*
X724Y1837D03*
X724Y1737D03*
X724Y1637D03*
X724Y1537D03*
X724Y1437D03*
X724Y1337D03*
X724Y1238D03*
X724Y1137D03*
X724Y1038D03*
X724Y938D03*
X724Y837D03*
X1710Y837D03*
X1710Y938D03*
X1710Y1038D03*
X1710Y1137D03*
X1710Y1238D03*
X1710Y1337D03*
X1710Y1437D03*
X1710Y1537D03*
X1710Y1637D03*
X1710Y1737D03*
X1710Y1837D03*
X1710Y1937D03*
X1710Y2036D03*
X1710Y2137D03*
X1710Y2237D03*
X1710Y2336D03*
X1710Y2437D03*
X1710Y2536D03*
X1710Y2637D03*
G54D11*
X2024Y238D03*
X1924Y238D03*
G54D12*
X1924Y1538D03*
X2024Y1538D03*
X2124Y1538D03*
X1924Y1638D03*
X2024Y1638D03*
X2124Y1638D03*
X1924Y1838D03*
X1924Y1938D03*
X1924Y2138D03*
X1924Y2338D03*
X1924Y2438D03*
X1924Y2838D03*
X2024Y2138D03*
X2024Y2338D03*
X2024Y2438D03*
X2024Y2838D03*
X524Y1738D03*
X524Y1638D03*
X524Y2738D03*
X424Y2738D03*
X324Y2738D03*
X524Y738D03*
X424Y738D03*
X324Y738D03*
X2224Y2838D03*
X2324Y2838D03*
X2424Y2838D03*
X2524Y2838D03*
X2624Y2838D03*
X2724Y2838D03*
X2824Y2838D03*
X224Y2738D03*
X224Y738D03*
X1924Y538D03*
G54D13*
X2024Y238D03*
G04 End of Copper1*
M02*